<svg 
xmlns:xlink="http://www.w3.org/1999/xlink" 
xmlns="http://www.w3.org/2000/svg" 
viewBox="0 0 349.99999999999994 248.15835011044544" 
preserveAspectRatio="xMidYMid meet" 
class="css-98pqax" 
id="aafdhdab">
<defs id="SvgjsDefs1761"></defs>
<g id="SvgjsG1762" featurekey="1p4tPl-0" transform="matrix(2.2165872966788296,0,0,2.2165872966788296,64.1706351660585,-16.724519141567196)" fill="#111111">
<g xmlns="http://www.w3.org/2000/svg" fill="#111111">
<path d="M52.210022,54.5599976v-1c0,0,0.6199951,0.1699829,0.8999634,0.1699829c0.4700317,0,1.1400146,0.039978,1.5,0.039978   c0.3300171,0,1.2000122-0.039978,1.5800171-0.039978c3.1500244,0,6.9400024-3.6599731,6.9400024-8.9799805   c0-9.0599976-8.539978-9.9800415-9.6900024-9.9800415h-1.3800049v-4.5299683h0.8099976   c0.3300171,0,2.1300049,0.6199951,2.75,1.0800171c0.9700317,0.75,2.4700317,4.2799683,4.9200439,4.2799683   c1.3099976,0,2.1999512-1.9500122,2.1999512-3.3300171c0-4.4400024-3.3499756-6.3199463-3.7599487-6.4799805   c-1.6400146-0.710022-5.7000122-0.6699829-6.3700562-0.6699829H52.210022v-1.2399902c0-0.3000488,0-0.5-0.0900269-0.5h-4.1999512   c-0.1200562,0-0.1700439,0.25-0.1700439,0.4499512v1h-2.3800049c-2.289978,0-8.3999634,0.6700439-8.3999634,9.0300293   c0,9.1900024,9.4099731,9.9799805,11.0700073,9.9799805v4.3200073c-0.2400513,0.0400391-1.7800293-0.1699829-2.5300293-0.289978   c-0.8699951-0.210022-1.9799805-1.5-2.7700195-2.5400391C41.7300415,44.039978,40.7999878,42.75,38.8800049,42.75   c-1.1400146,0-2.0100098,2-2.0100098,3.6599731c0,5.7399902,4.5900269,7.0700073,9.75,7.0700073h1.1600342v1.0800171   c0,0.2099609,0.1199951,0.2999878,0.2000122,0.2999878h4.0799561C52.1199951,54.8599854,52.210022,54.8099976,52.210022,54.5599976   z M52.0599976,43.6300049h0.6700439c0.3599854,0,2.6299438,0.2099609,2.6299438,2.4499512   c0,1.7900391-1.6399536,2.1200562-2.5499878,2.1200562h-0.75V43.6300049z M48.0400391,34.5599976h-0.75   c-0.5100098,0-2.4300537-0.25-2.4300537-2.3699951c0-1.7000122,1.4000244-1.9899902,1.7800293-1.9899902h1.4000244V34.5599976z" fill="#F8D442"></path><path d="M18.4453735,39.3721924c0.0280762,0.1607056,0.0852051,0.3126831,0.1626587,0.4553833   c0.007019,0.0130005,0.0070801,0.02771,0.0145264,0.0405884l30.0800781,51.8398438   C48.9711914,92.1704102,49.465332,92.4550781,50,92.4550781s1.0288086-0.284668,1.2973633-0.7470703l30.0800781-51.8398438   c0.0074463-0.0128784,0.0075073-0.0275879,0.0145264-0.0405884c0.0774536-0.1427002,0.1345825-0.2946777,0.1626587-0.4553833   c0.0033569-0.0193481,0.0031128-0.0380859,0.0057373-0.0575562c0.0089111-0.0661011,0.0197144-0.131958,0.0197144-0.1994019   c0-0.0967407-0.0101318-0.1923218-0.0283203-0.2858887c-0.0003662-0.0018921-0.0001831-0.0038452-0.0005493-0.0057373   c-0.0318604-0.1607056-0.0952759-0.3120117-0.1768188-0.4536743c-0.0101929-0.0177612-0.0174561-0.0359497-0.0284424-0.0533447   c-0.059021-0.093689-0.1258545-0.1827393-0.2053223-0.2623901L51.0605469,7.9838867   c-0.5859375-0.5849609-1.5351563-0.5849609-2.1210938,0L18.859375,38.0541992   c-0.0794678,0.0796509-0.1463013,0.1687012-0.2053223,0.2623901c-0.0109863,0.017395-0.0182495,0.0355835-0.0284424,0.0533447   c-0.081543,0.1416626-0.1449585,0.2929688-0.1768188,0.4536743c-0.0003662,0.0018921-0.0001831,0.0038452-0.0005493,0.0057373   c-0.0181885,0.0935669-0.0283203,0.1891479-0.0283203,0.2858887c0,0.0674438,0.0108032,0.1333008,0.0197144,0.1994019   C18.4422607,39.3341064,18.4420166,39.3528442,18.4453735,39.3721924z M50,11.1660156l27.9584961,27.9492188L50,67.0737305   L22.0415039,39.1152344L50,11.1660156z" fill="#F8D442"></path></g></g><g id="SvgjsG1763" featurekey="dYASrj-0" transform="matrix(2.67612438443574,0,0,2.67612438443574,-1.7497739304561868,194.63586242173062)" fill="#F8D442"><path d="M11.4 12.42 q0.86 0.54 1.31 1.32 t0.45 1.74 q0 2.26 -1.72 3.46 q-1.16 0.84 -3.14 1.06 l-0.08 0 q-0.28 0 -0.46 -0.18 q-0.24 -0.22 -0.24 -0.52 l0 -1.44 q0 -0.26 0.18 -0.46 t0.44 -0.24 q0.94 -0.1 1.46 -0.44 q0.4 -0.24 0.54 -0.62 q0.08 -0.22 0.08 -0.56 q0 -0.22 -0.08 -0.38 t-0.28 -0.3 q-0.58 -0.4 -1.5 -0.68 l-0.32 -0.1 q-1 -0.28 -1.84 -0.46 q-0.18 -0.04 -0.58 -0.14 l-0.22 -0.06 q-0.72 -0.18 -1.52 -0.5 q-1.18 -0.5 -1.94 -1.26 q-0.88 -0.88 -0.88 -2.32 q0 -1.98 1.52 -3.22 q1.04 -0.88 2.92 -1.12 q0.32 -0.04 0.55 0.18 t0.23 0.52 l0 1.44 q0 0.26 -0.16 0.46 t-0.41 0.23 t-0.51 0.11 q-0.58 0.22 -0.82 0.43 t-0.34 0.43 q-0.1 0.34 -0.1 0.64 q0 0.16 0.18 0.34 q0.28 0.28 0.82 0.5 q0.24 0.1 0.84 0.3 l2.5 0.62 l0.12 0.04 q0.94 0.26 1.36 0.4 q0.94 0.32 1.64 0.78 z M8.06 7.9 q-0.24 -0.06 -0.39 -0.25 t-0.15 -0.45 l0 -1.46 q0 -0.32 0.26 -0.54 q0.1 -0.1 0.26 -0.13 t0.3 -0.01 q1.76 0.28 2.86 1.2 q1.5 1.24 1.6 3.16 q0.02 0.28 -0.19 0.51 t-0.51 0.23 l-1.56 0 q-0.26 0 -0.46 -0.18 t-0.22 -0.44 q-0.08 -0.52 -0.34 -0.86 q-0.42 -0.5 -1.3 -0.76 q-0.06 0 -0.08 -0.02 l-0.08 0 z M5.72 17.08 q0.24 0.04 0.4 0.24 t0.16 0.44 l0 1.48 q0 0.32 -0.24 0.54 q-0.2 0.16 -0.46 0.16 l-0.1 0 q-1.86 -0.28 -3.06 -1.22 q-1.56 -1.24 -1.76 -3.46 q-0.04 -0.32 0.18 -0.55 t0.52 -0.23 l1.58 0 q0.28 0 0.48 0.19 t0.22 0.47 q0.06 1 0.98 1.54 q0.42 0.24 1.1 0.4 z M26.92 5 q0.28 0 0.48 0.21 t0.2 0.49 l0 13.28 q0 0.28 -0.2 0.49 t-0.48 0.21 l-1.52 0 q-0.28 0 -0.48 -0.21 t-0.2 -0.49 l0 -5.22 l-6.34 0 l0 5.22 q0 0.28 -0.21 0.49 t-0.49 0.21 l-1.5 0 q-0.28 0 -0.49 -0.21 t-0.21 -0.49 l0 -13.28 q0 -0.28 0.21 -0.49 t0.49 -0.21 l1.5 0 q0.28 0 0.49 0.21 t0.21 0.49 l0 5.2 l6.34 0 l0 -5.2 q0 -0.28 0.2 -0.49 t0.48 -0.21 l1.52 0 z M38.2 5.42 l5.6 13.22 q0.1 0.16 0.1 0.34 q0 0.28 -0.2 0.49 t-0.5 0.21 l-1.66 0 q-0.22 0 -0.39 -0.11 t-0.25 -0.31 l-1.46 -3.44 l-5.66 0 l-1.44 3.44 q-0.08 0.2 -0.25 0.31 t-0.39 0.11 l-1.66 0 q-0.18 0 -0.34 -0.09 t-0.25 -0.23 t-0.11 -0.31 t0.06 -0.33 l5.64 -13.3 q0.08 -0.2 0.25 -0.31 t0.39 -0.11 l1.88 0 q0.22 0 0.39 0.11 t0.25 0.31 z M36.62 9.06 l-1.66 3.98 l3.32 0 z M55.04 14.02 l2.98 4.58 q0.1 0.16 0.11 0.36 t-0.08 0.36 t-0.26 0.26 t-0.35 0.1 l-1.8 0 q-0.18 0 -0.34 -0.09 t-0.24 -0.23 l-3 -4.78 l-3.54 0 l0 4.4 q0 0.28 -0.21 0.49 t-0.49 0.21 l-1.5 0 q-0.28 0 -0.49 -0.21 t-0.21 -0.49 l0 -13.28 q0 -0.28 0.21 -0.49 t0.49 -0.21 l6.36 0 q2.3 0 3.73 1.31 t1.43 3.55 q0 1.44 -0.63 2.47 t-1.85 1.55 q-0.08 0.04 -0.26 0.12 z M48.519999999999996 7.82 l0 3.94 l3.9 0 q1.72 0 2.34 -0.98 q0.2 -0.36 0.2 -0.92 q0 -0.94 -0.62 -1.48 q-0.68 -0.56 -1.84 -0.56 l-3.98 0 z M70.9 5 q0.3 0 0.5 0.21 t0.2 0.49 l0 1.44 q0 0.28 -0.2 0.49 t-0.5 0.21 l-7.56 0 l0 3.06 l6.68 0 q0.3 0 0.5 0.21 t0.2 0.49 l0 1.46 q0 0.28 -0.2 0.49 t-0.5 0.21 l-6.68 0 l0 3.08 l7.56 0 q0.3 0 0.5 0.21 t0.2 0.49 l0 1.44 q0 0.28 -0.2 0.49 t-0.5 0.21 l-9.76 0 q-0.28 0 -0.49 -0.21 t-0.21 -0.49 l0 -13.28 q0 -0.28 0.21 -0.49 t0.49 -0.21 l9.76 0 z M84.96000000000001 5 q2.38 0 3.84 1.37 t1.46 3.65 t-1.44 3.64 t-3.86 1.36 l-3.82 0 l0 4.08 q0 0.28 -0.21 0.49 t-0.49 0.21 l-1.52 0 q-0.28 0 -0.49 -0.21 t-0.21 -0.49 l0 -6.2 q0 -0.28 0.21 -0.49 t0.49 -0.21 l5.92 0 q1.34 0 1.92 -0.58 q0.58 -0.52 0.58 -1.58 t-0.6 -1.63 t-1.9 -0.57 l-5.92 0 q-0.28 0 -0.49 -0.21 t-0.21 -0.49 l0 -1.44 q0 -0.28 0.21 -0.49 t0.49 -0.21 l6.04 0 z M101.74000000000001 16.84 q0.3 0 0.5 0.21 t0.2 0.49 l0 1.44 q0 0.28 -0.2 0.49 t-0.5 0.21 l-8.74 0 q-0.28 0 -0.49 -0.21 t-0.21 -0.49 l0 -13.28 q0 -0.28 0.21 -0.49 t0.49 -0.21 l1.5 0 q0.28 0 0.49 0.21 t0.21 0.49 l0 11.14 l6.54 0 z M116.22 5 q0.28 0 0.49 0.21 t0.21 0.49 l0 7.56 q0 2.92 -1.78 4.75 t-4.57 1.83 t-4.57 -1.83 t-1.78 -4.75 l0 -7.56 q0 -0.28 0.21 -0.49 t0.49 -0.21 l1.5 0 q0.28 0 0.49 0.21 t0.21 0.49 l0 7.6 q0 1.86 1.06 2.84 q0.9 0.84 2.38 0.84 t2.4 -0.84 q1.06 -1 1.06 -2.84 l0 -7.6 q0 -0.28 0.2 -0.49 t0.48 -0.21 l1.52 0 z M129.70000000000002 12.42 q0.84 0.54 1.29 1.32 t0.45 1.74 q0 2.2 -1.7 3.42 q-1.58 1.1 -4.26 1.1 q-3.04 0 -4.7 -1.32 q-1.52 -1.22 -1.74 -3.44 q-0.04 -0.32 0.18 -0.54 t0.52 -0.22 l1.56 0 q0.28 0 0.48 0.18 t0.22 0.46 q0.04 0.52 0.27 0.89 t0.71 0.65 q0.92 0.52 2.52 0.52 q1.38 0 2.14 -0.32 q0.58 -0.26 0.78 -0.7 q0.12 -0.24 0.12 -0.62 q0 -0.24 -0.09 -0.4 t-0.29 -0.3 q-0.56 -0.38 -1.48 -0.66 q-0.8 -0.24 -2.14 -0.56 q-1.22 -0.26 -2.3 -0.7 q-1.22 -0.52 -1.92 -1.24 q-0.88 -0.88 -0.88 -2.3 q0 -1.98 1.5 -3.2 q1.46 -1.18 4.22 -1.18 t4.34 1.32 q1.48 1.22 1.58 3.14 q0.04 0.28 -0.18 0.52 q-0.24 0.2 -0.5 0.2 l-1.56 0 q-0.26 0 -0.46 -0.17 t-0.22 -0.43 q-0.06 -0.52 -0.34 -0.86 q-0.4 -0.5 -1.28 -0.74 q-0.6 -0.18 -1.53 -0.18 t-1.48 0.19 t-0.81 0.41 t-0.32 0.44 q-0.1 0.34 -0.1 0.64 q0 0.16 0.18 0.34 q0.36 0.32 0.8 0.48 q0.56 0.24 1.38 0.44 t1.71 0.42 t1.69 0.48 q0.94 0.32 1.64 0.78 z" fill="#F8D442"></path></g></svg>